<svg width="24" height="24" viewBox="0 0 24 24" fill="none" xmlns="http://www.w3.org/2000/svg">
<path d="M8.99998 13.5C9.6652 13.4998 10.3116 13.7208 10.8376 14.1281C11.3635 14.5354 11.7392 15.1059 11.9055 15.75H20.25C20.4374 15.7497 20.6182 15.8195 20.7567 15.9458C20.8952 16.072 20.9814 16.2456 20.9983 16.4322C21.0152 16.6189 20.9617 16.8051 20.8481 16.9542C20.7346 17.1034 20.5694 17.2046 20.385 17.238L20.25 17.25L11.9055 17.2515C11.7397 17.8961 11.3643 18.4674 10.8383 18.8752C10.3123 19.2831 9.66559 19.5045 8.99998 19.5045C8.33437 19.5045 7.68766 19.2831 7.16165 18.8752C6.63565 18.4674 6.26023 17.8961 6.09448 17.2515L3.74998 17.25C3.56256 17.2503 3.3818 17.1805 3.2433 17.0542C3.1048 16.928 3.0186 16.7544 3.00167 16.5678C2.98473 16.3811 3.03829 16.1949 3.15181 16.0458C3.26532 15.8966 3.43056 15.7954 3.61498 15.762L3.74998 15.75H6.09448C6.26078 15.1059 6.63645 14.5354 7.1624 14.1281C7.68835 13.7208 8.33476 13.4998 8.99998 13.5ZM8.99998 15C8.60215 15 8.22062 15.158 7.93932 15.4393C7.65801 15.7206 7.49998 16.1022 7.49998 16.5C7.49998 16.8978 7.65801 17.2794 7.93932 17.5607C8.22062 17.842 8.60215 18 8.99998 18C9.3978 18 9.77933 17.842 10.0606 17.5607C10.3419 17.2794 10.5 16.8978 10.5 16.5C10.5 16.1022 10.3419 15.7206 10.0606 15.4393C9.77933 15.158 9.3978 15 8.99998 15ZM15 4.5C15.6652 4.49983 16.3116 4.72076 16.8376 5.12806C17.3635 5.53535 17.7392 6.10591 17.9055 6.75H20.25C20.4374 6.74966 20.6182 6.81949 20.7567 6.94576C20.8952 7.07203 20.9814 7.24558 20.9983 7.43223C21.0152 7.61889 20.9617 7.80511 20.8481 7.95425C20.7346 8.10338 20.5694 8.20461 20.385 8.238L20.25 8.25L17.9055 8.2515C17.7397 8.89614 17.3643 9.46736 16.8383 9.87523C16.3123 10.2831 15.6656 10.5045 15 10.5045C14.3344 10.5045 13.6877 10.2831 13.1617 9.87523C12.6357 9.46736 12.2602 8.89614 12.0945 8.2515L3.74998 8.25C3.56256 8.25035 3.3818 8.18051 3.2433 8.05424C3.1048 7.92797 3.0186 7.75442 3.00167 7.56777C2.98473 7.38112 3.03829 7.19489 3.15181 7.04575C3.26532 6.89662 3.43056 6.79539 3.61498 6.762L3.74998 6.75H12.0945C12.2608 6.10591 12.6364 5.53535 13.1624 5.12806C13.6884 4.72076 14.3348 4.49983 15 4.5V4.5ZM15 6C14.6022 6 14.2206 6.15804 13.9393 6.43934C13.658 6.72064 13.5 7.10218 13.5 7.5C13.5 7.89782 13.658 8.27936 13.9393 8.56066C14.2206 8.84196 14.6022 9 15 9C15.3978 9 15.7793 8.84196 16.0606 8.56066C16.3419 8.27936 16.5 7.89782 16.5 7.5C16.5 7.10218 16.3419 6.72064 16.0606 6.43934C15.7793 6.15804 15.3978 6 15 6V6Z" fill="#232323"/>
</svg>
