<svg width="24" height="24" viewBox="0 0 24 24" fill="none" xmlns="http://www.w3.org/2000/svg">
<path d="M8.05005 12.9146L19.3635 3.01457C19.3635 3.01457 20.4235 1.95457 21.4845 3.01457C22.545 4.07557 21.4845 5.13607 21.4845 5.13607L11.585 16.4501L8.05005 12.9146Z" stroke="#232323" stroke-width="2" stroke-linejoin="round"/>
<path d="M11.232 10.4395L14.0605 13.268" stroke="#232323" stroke-width="2" stroke-linecap="round" stroke-linejoin="round"/>
<path d="M2.74652 15.3891L8.05002 12.9141L11.585 16.4501L9.11002 21.7531C9.11002 21.7531 6.63502 22.1066 4.51402 19.9856C2.39252 17.8641 2.74602 15.3891 2.74602 15.3891H2.74652Z" stroke="#232323" stroke-width="2" stroke-linejoin="round"/>
<path d="M3.45404 18.2175L5.92904 17.157M6.28254 21.046L6.99004 19.632" stroke="#232323" stroke-width="2" stroke-linecap="round" stroke-linejoin="round"/>
<path d="M9.46503 11.6771L10.879 10.4396L12.293 9.20215M15.298 12.2071L14.0605 13.6211L12.823 15.0356" stroke="#232323" stroke-width="2" stroke-linejoin="round"/>
</svg>
