<svg width="24" height="24" viewBox="0 0 24 24" fill="none" xmlns="http://www.w3.org/2000/svg">
<path fill-rule="evenodd" clip-rule="evenodd" d="M12 22C17.5228 22 22 17.5228 22 12C22 6.47715 17.5228 2 12 2C6.47715 2 2 6.47715 2 12C2 17.5228 6.47715 22 12 22ZM17.8333 9.55C17.8333 7.68333 16.3167 6.16667 14.45 6.16667H9.55C8.65268 6.16667 7.79212 6.52312 7.15762 7.15762C6.52312 7.79212 6.16667 8.65268 6.16667 9.55V14.45C6.16667 16.3167 7.68333 17.8333 9.55 17.8333H14.45C15.3473 17.8333 16.2079 17.4769 16.8424 16.8424C17.4769 16.2079 17.8333 15.3473 17.8333 14.45V9.55ZM7.94841 7.94841C8.34224 7.55458 8.87638 7.33333 9.43333 7.33333H14.5667C15.7275 7.33333 16.6667 8.2725 16.6667 9.43333V14.5667C16.6667 15.1236 16.4454 15.6578 16.0516 16.0516C15.6578 16.4454 15.1236 16.6667 14.5667 16.6667H9.43333C8.2725 16.6667 7.33333 15.7275 7.33333 14.5667V9.43333C7.33333 8.87638 7.55458 8.34224 7.94841 7.94841ZM15.5781 8.4219C15.4414 8.28516 15.2559 8.20833 15.0625 8.20833C14.8691 8.20833 14.6836 8.28516 14.5469 8.4219C14.4102 8.55865 14.3333 8.74411 14.3333 8.9375C14.3333 9.13089 14.4102 9.31635 14.5469 9.4531C14.6836 9.58984 14.8691 9.66667 15.0625 9.66667C15.2559 9.66667 15.4414 9.58984 15.5781 9.4531C15.7148 9.31635 15.7917 9.13089 15.7917 8.9375C15.7917 8.74411 15.7148 8.55865 15.5781 8.4219ZM14.0624 9.9376C13.5154 9.39062 12.7735 9.08333 12 9.08333C11.2265 9.08333 10.4846 9.39062 9.9376 9.9376C9.39062 10.4846 9.08333 11.2265 9.08333 12C9.08333 12.7735 9.39062 13.5154 9.9376 14.0624C10.4846 14.6094 11.2265 14.9167 12 14.9167C12.7735 14.9167 13.5154 14.6094 14.0624 14.0624C14.6094 13.5154 14.9167 12.7735 14.9167 12C14.9167 11.2265 14.6094 10.4846 14.0624 9.9376ZM10.7626 10.7626C11.0908 10.4344 11.5359 10.25 12 10.25C12.4641 10.25 12.9092 10.4344 13.2374 10.7626C13.5656 11.0908 13.75 11.5359 13.75 12C13.75 12.4641 13.5656 12.9092 13.2374 13.2374C12.9092 13.5656 12.4641 13.75 12 13.75C11.5359 13.75 11.0908 13.5656 10.7626 13.2374C10.4344 12.9092 10.25 12.4641 10.25 12C10.25 11.5359 10.4344 11.0908 10.7626 10.7626Z" fill="#232323"/>
</svg>
