<svg width="24" height="24" viewBox="0 0 24 24" fill="none" xmlns="http://www.w3.org/2000/svg">
<path d="M19.2844 18.2156C19.4252 18.3578 19.5042 18.5498 19.5042 18.75C19.5042 18.9501 19.4252 19.1422 19.2844 19.2843C19.141 19.423 18.9494 19.5004 18.75 19.5004C18.5506 19.5004 18.359 19.423 18.2156 19.2843L12 13.0593L5.78438 19.2843C5.64103 19.423 5.44942 19.5004 5.25001 19.5004C5.0506 19.5004 4.85899 19.423 4.71563 19.2843C4.5748 19.1422 4.49579 18.9501 4.49579 18.75C4.49579 18.5498 4.5748 18.3578 4.71563 18.2156L10.9406 12L4.71563 5.78435C4.59604 5.63862 4.53492 5.45363 4.54416 5.26534C4.55341 5.07705 4.63236 4.89893 4.76567 4.76563C4.89897 4.63233 5.07708 4.55338 5.26537 4.54413C5.45366 4.53488 5.63866 4.596 5.78438 4.7156L12 10.9406L18.2156 4.7156C18.3614 4.596 18.5464 4.53488 18.7346 4.54413C18.9229 4.55338 19.101 4.63233 19.2343 4.76563C19.3677 4.89893 19.4466 5.07705 19.4559 5.26534C19.4651 5.45363 19.404 5.63862 19.2844 5.78435L13.0594 12L19.2844 18.2156Z" fill="#232323"/>
</svg>
