<svg width="507" height="789" viewBox="0 0 507 789" fill="none" xmlns="http://www.w3.org/2000/svg">
<path fill-rule="evenodd" clip-rule="evenodd" d="M737.992 762.48C673.83 801.141 592.414 788.212 520.184 776.732C455.973 766.526 408.886 719.735 347.392 700.399C267.801 675.373 168.682 699.214 106.078 646.522C40.4659 591.299 -20.5891 498.078 8.16547 414.884C39.4772 324.292 176.868 317.63 244.282 246.665C291.83 196.612 274.351 97.5572 337.282 68.429C401.9 38.5201 467.291 120.537 537.265 111.055C621.657 99.62 701.181 -35.5875 769.339 9.88539C840.965 57.6721 719.498 194.266 767.492 264.655C821.739 344.213 1002.98 296.188 1028.16 389.466C1049.8 469.652 905.182 508.279 851.783 576.925C806.226 635.49 802.099 723.853 737.992 762.48Z" fill="#FFE8EF"/>
</svg>
