<svg width="196" height="951" viewBox="0 0 196 951" fill="none" xmlns="http://www.w3.org/2000/svg">
<path fill-rule="evenodd" clip-rule="evenodd" d="M801.817 440.7C803.218 515.596 751.312 579.641 705.256 636.453C664.312 686.958 600.246 704.342 552.753 747.93C491.285 804.344 462.372 902.104 385.438 929.975C304.807 959.185 193.548 965.45 135.877 898.951C73.0774 826.538 136.004 704.223 108.253 610.358C88.6798 544.154 -5.84359 509.764 0.39616 440.7C6.80321 369.785 110.527 354.162 137.303 288.822C169.596 210.019 92.2646 73.5461 165.724 37.2557C242.922 -0.881312 300.482 172.61 385.438 166.24C481.461 159.039 530.489 -21.9307 623.859 2.90313C704.125 24.2517 665.267 168.809 698.017 249.377C725.957 318.113 800.418 365.869 801.817 440.7Z" fill="#FFE8EF"/>
</svg>
