<svg width="24" height="24" viewBox="0 0 24 24" fill="none" xmlns="http://www.w3.org/2000/svg">
<path d="M12.75 11.25C12.75 11.0511 12.671 10.8603 12.5303 10.7197C12.3897 10.579 12.1989 10.5 12 10.5C11.8011 10.5 11.6103 10.579 11.4697 10.7197C11.329 10.8603 11.25 11.0511 11.25 11.25V12.75H9.75C9.55109 12.75 9.36032 12.829 9.21967 12.9697C9.07902 13.1103 9 13.3011 9 13.5C9 13.6989 9.07902 13.8897 9.21967 14.0303C9.36032 14.171 9.55109 14.25 9.75 14.25H11.25V15.75C11.25 15.9489 11.329 16.1397 11.4697 16.2803C11.6103 16.421 11.8011 16.5 12 16.5C12.1989 16.5 12.3897 16.421 12.5303 16.2803C12.671 16.1397 12.75 15.9489 12.75 15.75V14.25H14.25C14.4489 14.25 14.6397 14.171 14.7803 14.0303C14.921 13.8897 15 13.6989 15 13.5C15 13.3011 14.921 13.1103 14.7803 12.9697C14.6397 12.829 14.4489 12.75 14.25 12.75H12.75V11.25ZM9 3H15C15.1989 3 15.3897 3.07902 15.5303 3.21967C15.671 3.36032 15.75 3.55109 15.75 3.75V6.75H18C18.7956 6.75 19.5587 7.06607 20.1213 7.62868C20.6839 8.19129 21 8.95435 21 9.75V17.25C21 18.0456 20.6839 18.8087 20.1213 19.3713C19.5587 19.9339 18.7956 20.25 18 20.25H6C5.20435 20.25 4.44129 19.9339 3.87868 19.3713C3.31607 18.8087 3 18.0456 3 17.25V9.75C3 8.95435 3.31607 8.19129 3.87868 7.62868C4.44129 7.06607 5.20435 6.75 6 6.75H8.25V3.75C8.25 3.55109 8.32902 3.36032 8.46967 3.21967C8.61032 3.07902 8.80109 3 9 3V3ZM14.25 6.75V4.5H9.75V6.75H14.25ZM6 8.25C5.60218 8.25 5.22064 8.40804 4.93934 8.68934C4.65804 8.97064 4.5 9.35218 4.5 9.75V17.25C4.5 17.6478 4.65804 18.0294 4.93934 18.3107C5.22064 18.592 5.60218 18.75 6 18.75H18C18.3978 18.75 18.7794 18.592 19.0607 18.3107C19.342 18.0294 19.5 17.6478 19.5 17.25V9.75C19.5 9.35218 19.342 8.97064 19.0607 8.68934C18.7794 8.40804 18.3978 8.25 18 8.25H6Z" fill="#232323" stroke="#232323" stroke-width="0.5"/>
</svg>
