<svg width="24" height="24" viewBox="0 0 24 24" fill="none" xmlns="http://www.w3.org/2000/svg">
<path d="M16.3065 1.5225C16.4994 1.57069 16.6653 1.69351 16.7677 1.86397C16.8701 2.03442 16.9006 2.23856 16.8525 2.4315L16.4775 3.9315C16.4556 4.02902 16.4144 4.12116 16.3563 4.20252C16.2982 4.28388 16.2245 4.35281 16.1394 4.40527C16.0543 4.45772 15.9596 4.49264 15.8608 4.50797C15.7621 4.52331 15.6612 4.51874 15.5643 4.49454C15.4673 4.47035 15.3761 4.42701 15.2961 4.36708C15.2161 4.30715 15.1489 4.23184 15.0984 4.14556C15.048 4.05929 15.0153 3.9638 15.0022 3.8647C14.9892 3.7656 14.9961 3.6649 15.0225 3.5685L15.3975 2.0685C15.4457 1.87559 15.5685 1.7097 15.739 1.60731C15.9094 1.50493 16.1136 1.47442 16.3065 1.5225V1.5225ZM20.781 3.219C20.8509 3.28867 20.9063 3.37143 20.9441 3.46255C20.9819 3.55367 21.0014 3.65135 21.0014 3.75C21.0014 3.84865 20.9819 3.94634 20.9441 4.03745C20.9063 4.12857 20.8509 4.21133 20.781 4.281L19.281 5.781C19.2113 5.85064 19.1285 5.90585 19.0374 5.9435C18.9464 5.98115 18.8488 6.00049 18.7502 6.00042C18.6517 6.00035 18.5541 5.98087 18.4631 5.94309C18.3721 5.90532 18.2894 5.84998 18.2198 5.78025C18.1501 5.71052 18.0949 5.62776 18.0573 5.53669C18.0196 5.44561 18.0003 5.34802 18.0003 5.24947C18.0004 5.15093 18.0199 5.05336 18.0577 4.96234C18.0954 4.87132 18.1508 4.78864 18.2205 4.719L19.7205 3.219C19.8612 3.0784 20.0519 2.99941 20.2508 2.99941C20.4496 2.99941 20.6404 3.0784 20.781 3.219V3.219ZM9.42601 19.548C9.8026 20.1741 10.3948 20.6413 11.0913 20.8619C11.7879 21.0824 12.5411 21.0412 13.2094 20.7458C13.8777 20.4505 14.4153 19.9215 14.7212 19.2579C15.0272 18.5944 15.0804 17.842 14.871 17.142L9.42601 19.548V19.548ZM8.04601 20.1585L6.54901 20.82C6.16198 20.9915 5.73216 21.042 5.31592 20.9649C4.89968 20.8878 4.51646 20.6867 4.21651 20.388L3.61651 19.788C3.31763 19.4904 3.11571 19.1094 3.03727 18.695C2.95884 18.2806 3.00755 17.8522 3.17701 17.466L8.98351 4.2525C9.12124 3.94062 9.33284 3.66696 9.60003 3.45517C9.86721 3.24338 10.1819 3.09983 10.517 3.03692C10.8521 2.97401 11.1975 2.99363 11.5233 3.09409C11.8491 3.19454 12.1455 3.37282 12.387 3.6135L20.385 11.5875C20.626 11.8278 20.8047 12.1233 20.9056 12.4483C21.0066 12.7732 21.0268 13.1179 20.9644 13.4525C20.902 13.787 20.759 14.1013 20.5478 14.3681C20.3365 14.6349 20.0634 14.8461 19.752 14.9835L16.2495 16.5315C16.6197 17.5985 16.5752 18.7658 16.1247 19.8015C15.6743 20.8372 14.8508 21.6656 13.8178 22.1223C12.7848 22.579 11.6179 22.6306 10.5487 22.2668C9.47943 21.903 8.58609 21.1504 8.04601 20.1585V20.1585ZM21.75 7.5H20.25C20.0511 7.5 19.8603 7.57902 19.7197 7.71967C19.579 7.86033 19.5 8.05109 19.5 8.25C19.5 8.44892 19.579 8.63968 19.7197 8.78033C19.8603 8.92099 20.0511 9 20.25 9H21.75C21.9489 9 22.1397 8.92099 22.2803 8.78033C22.421 8.63968 22.5 8.44892 22.5 8.25C22.5 8.05109 22.421 7.86033 22.2803 7.71967C22.1397 7.57902 21.9489 7.5 21.75 7.5ZM10.3575 4.857L4.54951 18.069C4.50149 18.1783 4.48768 18.2995 4.50991 18.4168C4.53213 18.5341 4.58934 18.6419 4.67401 18.726L5.27551 19.326C5.36122 19.4112 5.47066 19.4685 5.5895 19.4905C5.70833 19.5124 5.83103 19.498 5.94151 19.449L19.1445 13.611C19.2327 13.5722 19.3101 13.5124 19.37 13.4369C19.4299 13.3614 19.4705 13.2725 19.4882 13.1777C19.5059 13.083 19.5003 12.9854 19.4718 12.8934C19.4432 12.8013 19.3927 12.7176 19.3245 12.6495L11.3295 4.6755C11.2607 4.60707 11.1763 4.55636 11.0835 4.52772C10.9908 4.49908 10.8925 4.49336 10.7971 4.51106C10.7016 4.52876 10.6119 4.56935 10.5356 4.62934C10.4593 4.68933 10.3987 4.76694 10.359 4.8555L10.3575 4.857Z" fill="#232323" stroke="#232323" stroke-width="0.5"/>
</svg>
