<svg width="160" height="694" viewBox="0 0 160 694" fill="none" xmlns="http://www.w3.org/2000/svg">
<path fill-rule="evenodd" clip-rule="evenodd" d="M159.98 321.394C161.002 376.084 123.128 422.851 89.5225 464.336C59.6475 501.216 12.9012 513.909 -21.7522 545.738C-66.6034 586.933 -87.6994 658.318 -143.836 678.67C-202.669 700 -283.85 704.575 -325.93 656.016C-371.752 603.139 -325.837 513.823 -346.086 445.281C-360.368 396.938 -429.338 371.825 -424.785 321.394C-420.11 269.61 -344.426 258.203 -324.889 210.491C-301.326 152.947 -357.752 53.2924 -304.151 26.7925C-247.823 -1.05572 -205.824 125.63 -143.835 120.979C-73.771 115.721 -37.9972 -16.4263 30.131 1.70774C88.6978 17.2968 60.3448 122.855 84.2411 181.687C104.628 231.879 158.959 266.751 159.98 321.394Z" fill="#FFE8EF"/>
</svg>
